FILE "Announcer_Take_1.mp3" MP3
  TRACK 01 AUDIO
    TITLE "001"
    PERFORMER "Benjamin ""Benjamoose"" Rudman"
    INDEX 01 00:01:60
  TRACK 02 AUDIO
    TITLE "002"
    PERFORMER "Benjamin ""Benjamoose"" Rudman"
    INDEX 01 00:04:47
  TRACK 03 AUDIO
    TITLE "003"
    PERFORMER "Benjamin ""Benjamoose"" Rudman"
    INDEX 01 00:07:16
  TRACK 04 AUDIO
    TITLE "004"
    PERFORMER "Benjamin ""Benjamoose"" Rudman"
    INDEX 01 00:10:65
  TRACK 05 AUDIO
    TITLE "005"
    PERFORMER "Benjamin ""Benjamoose"" Rudman"
    INDEX 01 00:12:71
  TRACK 06 AUDIO
    TITLE "006"
    PERFORMER "Benjamin ""Benjamoose"" Rudman"
    INDEX 01 00:14:70
  TRACK 07 AUDIO
    TITLE "007"
    PERFORMER "Benjamin ""Benjamoose"" Rudman"
    INDEX 01 00:16:73
  TRACK 08 AUDIO
    TITLE "008"
    PERFORMER "Benjamin ""Benjamoose"" Rudman"
    INDEX 01 00:19:24
  TRACK 09 AUDIO
    TITLE "009"
    PERFORMER "Benjamin ""Benjamoose"" Rudman"
    INDEX 01 00:21:02
  TRACK 10 AUDIO
    TITLE "010"
    PERFORMER "Benjamin ""Benjamoose"" Rudman"
    INDEX 01 00:22:69
  TRACK 11 AUDIO
    TITLE "011"
    PERFORMER "Benjamin ""Benjamoose"" Rudman"
    INDEX 01 00:25:00
  TRACK 12 AUDIO
    TITLE "012"
    PERFORMER "Benjamin ""Benjamoose"" Rudman"
    INDEX 01 00:28:15
  TRACK 13 AUDIO
    TITLE "013"
    PERFORMER "Benjamin ""Benjamoose"" Rudman"
    INDEX 01 00:33:54
  TRACK 14 AUDIO
    TITLE "014"
    PERFORMER "Benjamin ""Benjamoose"" Rudman"
    INDEX 01 00:40:05
  TRACK 15 AUDIO
    TITLE "015"
    PERFORMER "Benjamin ""Benjamoose"" Rudman"
    INDEX 01 00:47:68
  TRACK 16 AUDIO
    TITLE "016"
    PERFORMER "Benjamin ""Benjamoose"" Rudman"
    INDEX 01 00:56:43
  TRACK 17 AUDIO
    TITLE "017"
    PERFORMER "Benjamin ""Benjamoose"" Rudman"
    INDEX 01 01:05:19
  TRACK 18 AUDIO
    TITLE "018"
    PERFORMER "Benjamin ""Benjamoose"" Rudman"
    INDEX 01 01:07:63
  TRACK 19 AUDIO
    TITLE "019"
    PERFORMER "Benjamin ""Benjamoose"" Rudman"
    INDEX 01 01:09:62
  TRACK 20 AUDIO
    TITLE "020"
    PERFORMER "Benjamin ""Benjamoose"" Rudman"
    INDEX 01 01:12:69
  TRACK 21 AUDIO
    TITLE "021"
    PERFORMER "Benjamin ""Benjamoose"" Rudman"
    INDEX 01 01:15:74
  TRACK 22 AUDIO
    TITLE "022"
    PERFORMER "Benjamin ""Benjamoose"" Rudman"
    INDEX 01 01:17:45
  TRACK 23 AUDIO
    TITLE "023"
    PERFORMER "Benjamin ""Benjamoose"" Rudman"
    INDEX 01 01:21:43
  TRACK 24 AUDIO
    TITLE "024"
    PERFORMER "Benjamin ""Benjamoose"" Rudman"
    INDEX 01 01:25:46
  TRACK 25 AUDIO
    TITLE "025"
    PERFORMER "Benjamin ""Benjamoose"" Rudman"
    INDEX 01 01:29:62
  TRACK 26 AUDIO
    TITLE "026"
    PERFORMER "Benjamin ""Benjamoose"" Rudman"
    INDEX 01 01:30:73
  TRACK 27 AUDIO
    TITLE "027"
    PERFORMER "Benjamin ""Benjamoose"" Rudman"
    INDEX 01 01:32:16
  TRACK 28 AUDIO
    TITLE "028"
    PERFORMER "Benjamin ""Benjamoose"" Rudman"
    INDEX 01 01:33:17
  TRACK 29 AUDIO
    TITLE "029"
    PERFORMER "Benjamin ""Benjamoose"" Rudman"
    INDEX 01 01:34:35
  TRACK 30 AUDIO
    TITLE "030"
    PERFORMER "Benjamin ""Benjamoose"" Rudman"
    INDEX 01 01:35:53
  TRACK 31 AUDIO
    TITLE "031"
    PERFORMER "Benjamin ""Benjamoose"" Rudman"
    INDEX 01 01:36:68
  TRACK 32 AUDIO
    TITLE "032"
    PERFORMER "Benjamin ""Benjamoose"" Rudman"
    INDEX 01 01:38:04
  TRACK 33 AUDIO
    TITLE "033"
    PERFORMER "Benjamin ""Benjamoose"" Rudman"
    INDEX 01 01:39:26
  TRACK 34 AUDIO
    TITLE "034"
    PERFORMER "Benjamin ""Benjamoose"" Rudman"
    INDEX 01 01:40:44
  TRACK 35 AUDIO
    TITLE "035"
    PERFORMER "Benjamin ""Benjamoose"" Rudman"
    INDEX 01 01:43:45
  TRACK 36 AUDIO
    TITLE "036"
    PERFORMER "Benjamin ""Benjamoose"" Rudman"
    INDEX 01 01:45:58
  TRACK 37 AUDIO
    TITLE "037"
    PERFORMER "Benjamin ""Benjamoose"" Rudman"
    INDEX 01 01:47:57
  TRACK 38 AUDIO
    TITLE "038"
    PERFORMER "Benjamin ""Benjamoose"" Rudman"
    INDEX 01 01:50:40
  TRACK 39 AUDIO
    TITLE "039"
    PERFORMER "Benjamin ""Benjamoose"" Rudman"
    INDEX 01 01:52:74
  TRACK 40 AUDIO
    TITLE "040"
    PERFORMER "Benjamin ""Benjamoose"" Rudman"
    INDEX 01 01:54:69
  TRACK 41 AUDIO
    TITLE "041"
    PERFORMER "Benjamin ""Benjamoose"" Rudman"
    INDEX 01 01:57:32
  TRACK 42 AUDIO
    TITLE "042"
    PERFORMER "Benjamin ""Benjamoose"" Rudman"
    INDEX 01 02:00:01
  TRACK 43 AUDIO
    TITLE "043"
    PERFORMER "Benjamin ""Benjamoose"" Rudman"
    INDEX 01 02:01:57
  TRACK 44 AUDIO
    TITLE "044"
    PERFORMER "Benjamin ""Benjamoose"" Rudman"
    INDEX 01 02:03:28
  TRACK 45 AUDIO
    TITLE "045"
    PERFORMER "Benjamin ""Benjamoose"" Rudman"
    INDEX 01 02:05:27
  TRACK 46 AUDIO
    TITLE "046"
    PERFORMER "Benjamin ""Benjamoose"" Rudman"
    INDEX 01 02:07:40
  TRACK 47 AUDIO
    TITLE "047"
    PERFORMER "Benjamin ""Benjamoose"" Rudman"
    INDEX 01 02:13:56
  TRACK 48 AUDIO
    TITLE "048"
    PERFORMER "Benjamin ""Benjamoose"" Rudman"
    INDEX 01 02:16:39
  TRACK 49 AUDIO
    TITLE "049"
    PERFORMER "Benjamin ""Benjamoose"" Rudman"
    INDEX 01 02:19:15
  TRACK 50 AUDIO
    TITLE "050"
    PERFORMER "Benjamin ""Benjamoose"" Rudman"
    INDEX 01 02:24:33
  TRACK 51 AUDIO
    TITLE "051"
    PERFORMER "Benjamin ""Benjamoose"" Rudman"
    INDEX 01 02:26:43
  TRACK 52 AUDIO
    TITLE "052"
    PERFORMER "Benjamin ""Benjamoose"" Rudman"
    INDEX 01 02:28:69
  TRACK 53 AUDIO
    TITLE "053"
    PERFORMER "Benjamin ""Benjamoose"" Rudman"
    INDEX 01 02:31:28
  TRACK 54 AUDIO
    TITLE "054"
    PERFORMER "Benjamin ""Benjamoose"" Rudman"
    INDEX 01 02:34:53
  TRACK 55 AUDIO
    TITLE "055"
    PERFORMER "Benjamin ""Benjamoose"" Rudman"
    INDEX 01 02:38:59
  TRACK 56 AUDIO
    TITLE "056"
    PERFORMER "Benjamin ""Benjamoose"" Rudman"
    INDEX 01 02:40:65
  TRACK 57 AUDIO
    TITLE "057"
    PERFORMER "Benjamin ""Benjamoose"" Rudman"
    INDEX 01 02:43:31
  TRACK 58 AUDIO
    TITLE "058"
    PERFORMER "Benjamin ""Benjamoose"" Rudman"
    INDEX 01 02:46:24
  TRACK 59 AUDIO
    TITLE "059"
    PERFORMER "Benjamin ""Benjamoose"" Rudman"
    INDEX 01 02:49:32
  TRACK 60 AUDIO
    TITLE "060"
    PERFORMER "Benjamin ""Benjamoose"" Rudman"
    INDEX 01 02:52:32
  TRACK 61 AUDIO
    TITLE "061"
    PERFORMER "Benjamin ""Benjamoose"" Rudman"
    INDEX 01 02:54:73
  TRACK 62 AUDIO
    TITLE "062"
    PERFORMER "Benjamin ""Benjamoose"" Rudman"
    INDEX 01 02:57:53
  TRACK 63 AUDIO
    TITLE "063"
    PERFORMER "Benjamin ""Benjamoose"" Rudman"
    INDEX 01 03:00:64
  TRACK 64 AUDIO
    TITLE "064"
    PERFORMER "Benjamin ""Benjamoose"" Rudman"
    INDEX 01 03:03:09
  TRACK 65 AUDIO
    TITLE "065"
    PERFORMER "Benjamin ""Benjamoose"" Rudman"
    INDEX 01 03:04:72
  TRACK 66 AUDIO
    TITLE "066"
    PERFORMER "Benjamin ""Benjamoose"" Rudman"
    INDEX 01 03:06:71
  TRACK 67 AUDIO
    TITLE "067"
    PERFORMER "Benjamin ""Benjamoose"" Rudman"
    INDEX 01 03:08:74
  TRACK 68 AUDIO
    TITLE "068"
    PERFORMER "Benjamin ""Benjamoose"" Rudman"
    INDEX 01 03:11:29
  TRACK 69 AUDIO
    TITLE "069"
    PERFORMER "Benjamin ""Benjamoose"" Rudman"
    INDEX 01 03:13:45
  TRACK 70 AUDIO
    TITLE "070"
    PERFORMER "Benjamin ""Benjamoose"" Rudman"
    INDEX 01 03:15:62
  TRACK 71 AUDIO
    TITLE "071"
    PERFORMER "Benjamin ""Benjamoose"" Rudman"
    INDEX 01 03:17:50
  TRACK 72 AUDIO
    TITLE "072"
    PERFORMER "Benjamin ""Benjamoose"" Rudman"
    INDEX 01 03:21:45
  TRACK 73 AUDIO
    TITLE "073"
    PERFORMER "Benjamin ""Benjamoose"" Rudman"
    INDEX 01 03:23:27
  TRACK 74 AUDIO
    TITLE "074"
    PERFORMER "Benjamin ""Benjamoose"" Rudman"
    INDEX 01 03:24:70
  TRACK 75 AUDIO
    TITLE "075"
    PERFORMER "Benjamin ""Benjamoose"" Rudman"
    INDEX 01 03:26:51
  TRACK 76 AUDIO
    TITLE "076"
    PERFORMER "Benjamin ""Benjamoose"" Rudman"
    INDEX 01 03:28:43
  TRACK 77 AUDIO
    TITLE "077"
    PERFORMER "Benjamin ""Benjamoose"" Rudman"
    INDEX 01 03:30:14
  TRACK 78 AUDIO
    TITLE "078"
    PERFORMER "Benjamin ""Benjamoose"" Rudman"
    INDEX 01 03:32:51
  TRACK 79 AUDIO
    TITLE "079"
    PERFORMER "Benjamin ""Benjamoose"" Rudman"
    INDEX 01 03:35:45
  TRACK 80 AUDIO
    TITLE "080"
    PERFORMER "Benjamin ""Benjamoose"" Rudman"
    INDEX 01 03:39:02
  TRACK 81 AUDIO
    TITLE "081"
    PERFORMER "Benjamin ""Benjamoose"" Rudman"
    INDEX 01 03:41:50
  TRACK 82 AUDIO
    TITLE "082"
    PERFORMER "Benjamin ""Benjamoose"" Rudman"
    INDEX 01 03:44:36
  TRACK 83 AUDIO
    TITLE "083"
    PERFORMER "Benjamin ""Benjamoose"" Rudman"
    INDEX 01 03:47:47
  TRACK 84 AUDIO
    TITLE "084"
    PERFORMER "Benjamin ""Benjamoose"" Rudman"
    INDEX 01 03:50:69
  TRACK 85 AUDIO
    TITLE "085"
    PERFORMER "Benjamin ""Benjamoose"" Rudman"
    INDEX 01 03:53:42
  TRACK 86 AUDIO
    TITLE "086"
    PERFORMER "Benjamin ""Benjamoose"" Rudman"
    INDEX 01 03:56:53
  TRACK 87 AUDIO
    TITLE "087"
    PERFORMER "Benjamin ""Benjamoose"" Rudman"
    INDEX 01 03:59:18
  TRACK 88 AUDIO
    TITLE "088"
    PERFORMER "Benjamin ""Benjamoose"" Rudman"
    INDEX 01 04:01:45
  TRACK 89 AUDIO
    TITLE "089"
    PERFORMER "Benjamin ""Benjamoose"" Rudman"
    INDEX 01 04:04:04
  TRACK 90 AUDIO
    TITLE "090"
    PERFORMER "Benjamin ""Benjamoose"" Rudman"
    INDEX 01 04:06:59
  TRACK 91 AUDIO
    TITLE "091"
    PERFORMER "Benjamin ""Benjamoose"" Rudman"
    INDEX 01 04:09:52
  TRACK 92 AUDIO
    TITLE "092"
    PERFORMER "Benjamin ""Benjamoose"" Rudman"
    INDEX 01 04:11:62
  TRACK 93 AUDIO
    TITLE "093"
    PERFORMER "Benjamin ""Benjamoose"" Rudman"
    INDEX 01 04:14:20
  TRACK 94 AUDIO
    TITLE "094"
    PERFORMER "Benjamin ""Benjamoose"" Rudman"
    INDEX 01 04:16:19
  TRACK 95 AUDIO
    TITLE "095"
    PERFORMER "Benjamin ""Benjamoose"" Rudman"
    INDEX 01 04:18:32
  TRACK 96 AUDIO
    TITLE "096"
    PERFORMER "Benjamin ""Benjamoose"" Rudman"
    INDEX 01 04:20:70
  TRACK 97 AUDIO
    TITLE "097"
    PERFORMER "Benjamin ""Benjamoose"" Rudman"
    INDEX 01 04:22:65
  TRACK 98 AUDIO
    TITLE "098"
    PERFORMER "Benjamin ""Benjamoose"" Rudman"
    INDEX 01 04:25:06
  TRACK 99 AUDIO
    TITLE "099"
    PERFORMER "Benjamin ""Benjamoose"" Rudman"
    INDEX 01 04:28:00
  TRACK 100 AUDIO
    TITLE "100"
    PERFORMER "Benjamin ""Benjamoose"" Rudman"
    INDEX 01 04:29:74
  TRACK 101 AUDIO
    TITLE "101"
    PERFORMER "Benjamin ""Benjamoose"" Rudman"
    INDEX 01 04:31:73
  TRACK 102 AUDIO
    TITLE "102"
    PERFORMER "Benjamin ""Benjamoose"" Rudman"
    INDEX 01 04:34:35
  TRACK 103 AUDIO
    TITLE "103"
    PERFORMER "Benjamin ""Benjamoose"" Rudman"
    INDEX 01 04:36:52
  TRACK 104 AUDIO
    TITLE "104"
    PERFORMER "Benjamin ""Benjamoose"" Rudman"
    INDEX 01 04:39:66
  TRACK 105 AUDIO
    TITLE "105"
    PERFORMER "Benjamin ""Benjamoose"" Rudman"
    INDEX 01 04:42:32
  TRACK 106 AUDIO
    TITLE "106"
    PERFORMER "Benjamin ""Benjamoose"" Rudman"
    INDEX 01 04:44:41
  TRACK 107 AUDIO
    TITLE "107"
    PERFORMER "Benjamin ""Benjamoose"" Rudman"
    INDEX 01 04:46:51
  TRACK 108 AUDIO
    TITLE "108"
    PERFORMER "Benjamin ""Benjamoose"" Rudman"
    INDEX 01 04:49:09
  TRACK 109 AUDIO
    TITLE "109"
    PERFORMER "Benjamin ""Benjamoose"" Rudman"
    INDEX 01 04:51:22
  TRACK 110 AUDIO
    TITLE "110"
    PERFORMER "Benjamin ""Benjamoose"" Rudman"
    INDEX 01 04:54:37
  TRACK 111 AUDIO
    TITLE "111"
    PERFORMER "Benjamin ""Benjamoose"" Rudman"
    INDEX 01 04:56:46
  TRACK 112 AUDIO
    TITLE "112"
    PERFORMER "Benjamin ""Benjamoose"" Rudman"
    INDEX 01 04:58:73
  TRACK 113 AUDIO
    TITLE "113"
    PERFORMER "Benjamin ""Benjamoose"" Rudman"
    INDEX 01 05:01:67
  TRACK 114 AUDIO
    TITLE "114"
    PERFORMER "Benjamin ""Benjamoose"" Rudman"
    INDEX 01 05:05:37
  TRACK 115 AUDIO
    TITLE "115"
    PERFORMER "Benjamin ""Benjamoose"" Rudman"
    INDEX 01 05:09:26
  TRACK 116 AUDIO
    TITLE "116"
    PERFORMER "Benjamin ""Benjamoose"" Rudman"
    INDEX 01 05:13:24
  TRACK 117 AUDIO
    TITLE "117"
    PERFORMER "Benjamin ""Benjamoose"" Rudman"
    INDEX 01 05:18:00
  TRACK 118 AUDIO
    TITLE "118"
    PERFORMER "Benjamin ""Benjamoose"" Rudman"
    INDEX 01 05:20:48
  TRACK 119 AUDIO
    TITLE "119"
    PERFORMER "Benjamin ""Benjamoose"" Rudman"
    INDEX 01 05:23:14
  TRACK 120 AUDIO
    TITLE "120"
    PERFORMER "Benjamin ""Benjamoose"" Rudman"
    INDEX 01 05:25:72
  TRACK 121 AUDIO
    TITLE "121"
    PERFORMER "Benjamin ""Benjamoose"" Rudman"
    INDEX 01 05:29:01
  TRACK 122 AUDIO
    TITLE "122"
    PERFORMER "Benjamin ""Benjamoose"" Rudman"
    INDEX 01 05:30:37
  TRACK 123 AUDIO
    TITLE "123"
    PERFORMER "Benjamin ""Benjamoose"" Rudman"
    INDEX 01 05:36:18
  TRACK 124 AUDIO
    TITLE "124"
    PERFORMER "Benjamin ""Benjamoose"" Rudman"
    INDEX 01 05:42:58
  TRACK 125 AUDIO
    TITLE "125"
    PERFORMER "Benjamin ""Benjamoose"" Rudman"
    INDEX 01 05:49:13
  TRACK 126 AUDIO
    TITLE "126"
    PERFORMER "Benjamin ""Benjamoose"" Rudman"
    INDEX 01 05:50:70
  TRACK 127 AUDIO
    TITLE "127"
    PERFORMER "Benjamin ""Benjamoose"" Rudman"
    INDEX 01 05:52:30
  TRACK 128 AUDIO
    TITLE "128"
    PERFORMER "Benjamin ""Benjamoose"" Rudman"
    INDEX 01 05:54:15
  TRACK 129 AUDIO
    TITLE "129"
    PERFORMER "Benjamin ""Benjamoose"" Rudman"
    INDEX 01 05:56:63
  TRACK 130 AUDIO
    TITLE "130"
    PERFORMER "Benjamin ""Benjamoose"" Rudman"
    INDEX 01 05:59:43
  TRACK 131 AUDIO
    TITLE "131"
    PERFORMER "Benjamin ""Benjamoose"" Rudman"
    INDEX 01 06:01:52
  TRACK 132 AUDIO
    TITLE "132"
    PERFORMER "Benjamin ""Benjamoose"" Rudman"
    INDEX 01 06:04:35
  TRACK 133 AUDIO
    TITLE "133"
    PERFORMER "Benjamin ""Benjamoose"" Rudman"
    INDEX 01 06:07:18
  TRACK 134 AUDIO
    TITLE "134"
    PERFORMER "Benjamin ""Benjamoose"" Rudman"
    INDEX 01 06:09:45
  TRACK 135 AUDIO
    TITLE "135"
    PERFORMER "Benjamin ""Benjamoose"" Rudman"
    INDEX 01 06:12:00
  TRACK 136 AUDIO
    TITLE "136"
    PERFORMER "Benjamin ""Benjamoose"" Rudman"
    INDEX 01 06:14:20
  TRACK 137 AUDIO
    TITLE "137"
    PERFORMER "Benjamin ""Benjamoose"" Rudman"
    INDEX 01 06:16:68
  TRACK 138 AUDIO
    TITLE "138"
    PERFORMER "Benjamin ""Benjamoose"" Rudman"
    INDEX 01 06:19:27
  TRACK 139 AUDIO
    TITLE "139"
    PERFORMER "Benjamin ""Benjamoose"" Rudman"
    INDEX 01 06:22:10
  TRACK 140 AUDIO
    TITLE "140"
    PERFORMER "Benjamin ""Benjamoose"" Rudman"
    INDEX 01 06:24:30
  TRACK 141 AUDIO
    TITLE "141"
    PERFORMER "Benjamin ""Benjamoose"" Rudman"
    INDEX 01 06:25:66
  TRACK 142 AUDIO
    TITLE "142"
    PERFORMER "Benjamin ""Benjamoose"" Rudman"
    INDEX 01 06:27:30
  TRACK 143 AUDIO
    TITLE "143"
    PERFORMER "Benjamin ""Benjamoose"" Rudman"
    INDEX 01 06:29:18
  TRACK 144 AUDIO
    TITLE "144"
    PERFORMER "Benjamin ""Benjamoose"" Rudman"
    INDEX 01 06:31:21
  TRACK 145 AUDIO
    TITLE "145"
    PERFORMER "Benjamin ""Benjamoose"" Rudman"
    INDEX 01 06:34:39
  TRACK 146 AUDIO
    TITLE "146"
    PERFORMER "Benjamin ""Benjamoose"" Rudman"
    INDEX 01 06:37:46
  TRACK 147 AUDIO
    TITLE "147"
    PERFORMER "Benjamin ""Benjamoose"" Rudman"
    INDEX 01 06:40:68
  TRACK 148 AUDIO
    TITLE "148"
    PERFORMER "Benjamin ""Benjamoose"" Rudman"
    INDEX 01 06:44:14
  TRACK 149 AUDIO
    TITLE "149"
    PERFORMER "Benjamin ""Benjamoose"" Rudman"
    INDEX 01 06:46:48
  TRACK 150 AUDIO
    TITLE "150"
    PERFORMER "Benjamin ""Benjamoose"" Rudman"
    INDEX 01 06:49:28
  TRACK 151 AUDIO
    TITLE "151"
    PERFORMER "Benjamin ""Benjamoose"" Rudman"
    INDEX 01 06:52:49
  TRACK 152 AUDIO
    TITLE "152"
    PERFORMER "Benjamin ""Benjamoose"" Rudman"
    INDEX 01 06:55:50
  TRACK 153 AUDIO
    TITLE "153"
    PERFORMER "Benjamin ""Benjamoose"" Rudman"
    INDEX 01 06:58:08
  TRACK 154 AUDIO
    TITLE "154"
    PERFORMER "Benjamin ""Benjamoose"" Rudman"
    INDEX 01 07:00:46
  TRACK 155 AUDIO
    TITLE "155"
    PERFORMER "Benjamin ""Benjamoose"" Rudman"
    INDEX 01 07:05:11
  TRACK 156 AUDIO
    TITLE "156"
    PERFORMER "Benjamin ""Benjamoose"" Rudman"
    INDEX 01 07:07:69
  TRACK 157 AUDIO
    TITLE "157"
    PERFORMER "Benjamin ""Benjamoose"" Rudman"
    INDEX 01 07:10:21
  TRACK 158 AUDIO
    TITLE "158"
    PERFORMER "Benjamin ""Benjamoose"" Rudman"
    INDEX 01 07:12:41
  TRACK 159 AUDIO
    TITLE "159"
    PERFORMER "Benjamin ""Benjamoose"" Rudman"
    INDEX 01 07:15:07
  TRACK 160 AUDIO
    TITLE "160"
    PERFORMER "Benjamin ""Benjamoose"" Rudman"
    INDEX 01 07:17:41
  TRACK 161 AUDIO
    TITLE "161"
    PERFORMER "Benjamin ""Benjamoose"" Rudman"
    INDEX 01 07:20:06
  TRACK 162 AUDIO
    TITLE "162"
    PERFORMER "Benjamin ""Benjamoose"" Rudman"
    INDEX 01 07:22:54
  TRACK 163 AUDIO
    TITLE "163"
    PERFORMER "Benjamin ""Benjamoose"" Rudman"
    INDEX 01 07:24:74
  TRACK 164 AUDIO
    TITLE "164"
    PERFORMER "Benjamin ""Benjamoose"" Rudman"
    INDEX 01 07:27:33
  TRACK 165 AUDIO
    TITLE "165"
    PERFORMER "Benjamin ""Benjamoose"" Rudman"
    INDEX 01 07:30:02
  TRACK 166 AUDIO
    TITLE "166"
    PERFORMER "Benjamin ""Benjamoose"" Rudman"
    INDEX 01 07:33:06
  TRACK 167 AUDIO
    TITLE "167"
    PERFORMER "Benjamin ""Benjamoose"" Rudman"
    INDEX 01 07:35:26
  TRACK 168 AUDIO
    TITLE "168"
    PERFORMER "Benjamin ""Benjamoose"" Rudman"
    INDEX 01 07:37:56
  TRACK 169 AUDIO
    TITLE "169"
    PERFORMER "Benjamin ""Benjamoose"" Rudman"
    INDEX 01 07:39:59
  TRACK 170 AUDIO
    TITLE "170"
    PERFORMER "Benjamin ""Benjamoose"" Rudman"
    INDEX 01 07:41:71
  TRACK 171 AUDIO
    TITLE "171"
    PERFORMER "Benjamin ""Benjamoose"" Rudman"
    INDEX 01 07:44:27
  TRACK 172 AUDIO
    TITLE "172"
    PERFORMER "Benjamin ""Benjamoose"" Rudman"
    INDEX 01 07:46:36
  TRACK 173 AUDIO
    TITLE "173"
    PERFORMER "Benjamin ""Benjamoose"" Rudman"
    INDEX 01 07:49:33
  TRACK 174 AUDIO
    TITLE "174"
    PERFORMER "Benjamin ""Benjamoose"" Rudman"
    INDEX 01 07:52:65
  TRACK 175 AUDIO
    TITLE "175"
    PERFORMER "Benjamin ""Benjamoose"" Rudman"
    INDEX 01 07:55:55
  TRACK 176 AUDIO
    TITLE "176"
    PERFORMER "Benjamin ""Benjamoose"" Rudman"
    INDEX 01 07:58:25
  TRACK 177 AUDIO
    TITLE "177"
    PERFORMER "Benjamin ""Benjamoose"" Rudman"
    INDEX 01 08:00:27
  TRACK 178 AUDIO
    TITLE "178"
    PERFORMER "Benjamin ""Benjamoose"" Rudman"
    INDEX 01 08:02:47
  TRACK 179 AUDIO
    TITLE "179"
    PERFORMER "Benjamin ""Benjamoose"" Rudman"
    INDEX 01 08:04:67
  TRACK 180 AUDIO
    TITLE "180"
    PERFORMER "Benjamin ""Benjamoose"" Rudman"
    INDEX 01 08:07:32
  TRACK 181 AUDIO
    TITLE "181"
    PERFORMER "Benjamin ""Benjamoose"" Rudman"
    INDEX 01 08:09:63
  TRACK 182 AUDIO
    TITLE "182"
    PERFORMER "Benjamin ""Benjamoose"" Rudman"
    INDEX 01 08:13:44
  TRACK 183 AUDIO
    TITLE "183"
    PERFORMER "Benjamin ""Benjamoose"" Rudman"
    INDEX 01 08:19:70
  TRACK 184 AUDIO
    TITLE "184"
    PERFORMER "Benjamin ""Benjamoose"" Rudman"
    INDEX 01 08:22:29
  TRACK 185 AUDIO
    TITLE "185"
    PERFORMER "Benjamin ""Benjamoose"" Rudman"
    INDEX 01 08:24:66
  TRACK 186 AUDIO
    TITLE "186"
    PERFORMER "Benjamin ""Benjamoose"" Rudman"
    INDEX 01 08:27:39
  TRACK 187 AUDIO
    TITLE "187"
    PERFORMER "Benjamin ""Benjamoose"" Rudman"
    INDEX 01 08:32:47
  TRACK 188 AUDIO
    TITLE "188"
    PERFORMER "Benjamin ""Benjamoose"" Rudman"
    INDEX 01 08:35:19
  TRACK 189 AUDIO
    TITLE "189"
    PERFORMER "Benjamin ""Benjamoose"" Rudman"
    INDEX 01 08:37:43
  TRACK 190 AUDIO
    TITLE "190"
    PERFORMER "Benjamin ""Benjamoose"" Rudman"
    INDEX 01 08:40:08
  TRACK 191 AUDIO
    TITLE "191"
    PERFORMER "Benjamin ""Benjamoose"" Rudman"
    INDEX 01 08:43:72
  TRACK 192 AUDIO
    TITLE "192"
    PERFORMER "Benjamin ""Benjamoose"" Rudman"
    INDEX 01 08:46:51
  TRACK 193 AUDIO
    TITLE "193"
    PERFORMER "Benjamin ""Benjamoose"" Rudman"
    INDEX 01 08:49:52
  TRACK 194 AUDIO
    TITLE "194"
    PERFORMER "Benjamin ""Benjamoose"" Rudman"
    INDEX 01 08:52:42
  TRACK 195 AUDIO
    TITLE "195"
    PERFORMER "Benjamin ""Benjamoose"" Rudman"
    INDEX 01 08:55:15
  TRACK 196 AUDIO
    TITLE "196"
    PERFORMER "Benjamin ""Benjamoose"" Rudman"
    INDEX 01 08:59:10
  TRACK 197 AUDIO
    TITLE "197"
    PERFORMER "Benjamin ""Benjamoose"" Rudman"
    INDEX 01 09:01:23
  TRACK 198 AUDIO
    TITLE "198"
    PERFORMER "Benjamin ""Benjamoose"" Rudman"
    INDEX 01 09:03:15
  TRACK 199 AUDIO
    TITLE "199"
    PERFORMER "Benjamin ""Benjamoose"" Rudman"
    INDEX 01 09:05:24
  TRACK 200 AUDIO
    TITLE "200"
    PERFORMER "Benjamin ""Benjamoose"" Rudman"
    INDEX 01 09:07:20
  TRACK 201 AUDIO
    TITLE "201"
    PERFORMER "Benjamin ""Benjamoose"" Rudman"
    INDEX 01 09:08:41
  TRACK 202 AUDIO
    TITLE "202"
    PERFORMER "Benjamin ""Benjamoose"" Rudman"
    INDEX 01 09:09:60
  TRACK 203 AUDIO
    TITLE "203"
    PERFORMER "Benjamin ""Benjamoose"" Rudman"
    INDEX 01 09:11:03
  TRACK 204 AUDIO
    TITLE "204"
    PERFORMER "Benjamin ""Benjamoose"" Rudman"
    INDEX 01 09:12:14
  TRACK 205 AUDIO
    TITLE "205"
    PERFORMER "Benjamin ""Benjamoose"" Rudman"
    INDEX 01 09:15:36
  TRACK 206 AUDIO
    TITLE "206"
    PERFORMER "Benjamin ""Benjamoose"" Rudman"
    INDEX 01 09:16:57
  TRACK 207 AUDIO
    TITLE "207"
    PERFORMER "Benjamin ""Benjamoose"" Rudman"
    INDEX 01 09:17:72
  TRACK 208 AUDIO
    TITLE "208"
    PERFORMER "Benjamin ""Benjamoose"" Rudman"
    INDEX 01 09:19:05
  TRACK 209 AUDIO
    TITLE "209"
    PERFORMER "Benjamin ""Benjamoose"" Rudman"
    INDEX 01 09:20:23
  TRACK 210 AUDIO
    TITLE "210"
    PERFORMER "Benjamin ""Benjamoose"" Rudman"
    INDEX 01 09:21:41
  TRACK 211 AUDIO
    TITLE "211"
    PERFORMER "Benjamin ""Benjamoose"" Rudman"
    INDEX 01 09:22:56
  TRACK 212 AUDIO
    TITLE "212"
    PERFORMER "Benjamin ""Benjamoose"" Rudman"
    INDEX 01 09:23:74
  TRACK 213 AUDIO
    TITLE "213"
    PERFORMER "Benjamin ""Benjamoose"" Rudman"
    INDEX 01 09:25:18
  TRACK 214 AUDIO
    TITLE "214"
    PERFORMER "Benjamin ""Benjamoose"" Rudman"
    INDEX 01 09:26:29
  TRACK 215 AUDIO
    TITLE "215"
    PERFORMER "Benjamin ""Benjamoose"" Rudman"
    INDEX 01 09:27:44
  TRACK 216 AUDIO
    TITLE "216"
    PERFORMER "Benjamin ""Benjamoose"" Rudman"
    INDEX 01 09:29:01
  TRACK 217 AUDIO
    TITLE "217"
    PERFORMER "Benjamin ""Benjamoose"" Rudman"
    INDEX 01 09:31:21
  TRACK 218 AUDIO
    TITLE "218"
    PERFORMER "Benjamin ""Benjamoose"" Rudman"
    INDEX 01 09:32:28
  TRACK 219 AUDIO
    TITLE "219"
    PERFORMER "Benjamin ""Benjamoose"" Rudman"
    INDEX 01 09:33:33
  TRACK 220 AUDIO
    TITLE "220"
    PERFORMER "Benjamin ""Benjamoose"" Rudman"
    INDEX 01 09:39:66
  TRACK 221 AUDIO
    TITLE "221"
    PERFORMER "Benjamin ""Benjamoose"" Rudman"
    INDEX 01 09:43:33
  TRACK 222 AUDIO
    TITLE "222"
    PERFORMER "Benjamin ""Benjamoose"" Rudman"
    INDEX 01 09:46:23
  TRACK 223 AUDIO
    TITLE "223"
    PERFORMER "Benjamin ""Benjamoose"" Rudman"
    INDEX 01 09:49:03
  TRACK 224 AUDIO
    TITLE "224"
    PERFORMER "Benjamin ""Benjamoose"" Rudman"
    INDEX 01 09:51:68
  TRACK 225 AUDIO
    TITLE "225"
    PERFORMER "Benjamin ""Benjamoose"" Rudman"
    INDEX 01 09:54:31
  TRACK 226 AUDIO
    TITLE "226"
    PERFORMER "Benjamin ""Benjamoose"" Rudman"
    INDEX 01 09:57:07
  TRACK 227 AUDIO
    TITLE "227"
    PERFORMER "Benjamin ""Benjamoose"" Rudman"
    INDEX 01 09:59:58
  TRACK 228 AUDIO
    TITLE "228"
    PERFORMER "Benjamin ""Benjamoose"" Rudman"
    INDEX 01 10:03:08
  TRACK 229 AUDIO
    TITLE "229"
    PERFORMER "Benjamin ""Benjamoose"" Rudman"
    INDEX 01 10:05:00
  TRACK 230 AUDIO
    TITLE "230"
    PERFORMER "Benjamin ""Benjamoose"" Rudman"
    INDEX 01 10:06:67
  TRACK 231 AUDIO
    TITLE "231"
    PERFORMER "Benjamin ""Benjamoose"" Rudman"
    INDEX 01 10:10:06
  TRACK 232 AUDIO
    TITLE "232"
    PERFORMER "Benjamin ""Benjamoose"" Rudman"
    INDEX 01 10:12:09
  TRACK 233 AUDIO
    TITLE "233"
    PERFORMER "Benjamin ""Benjamoose"" Rudman"
    INDEX 01 10:14:15
  TRACK 234 AUDIO
    TITLE "234"
    PERFORMER "Benjamin ""Benjamoose"" Rudman"
    INDEX 01 10:16:10
  TRACK 235 AUDIO
    TITLE "235"
    PERFORMER "Benjamin ""Benjamoose"" Rudman"
    INDEX 01 10:18:06
  TRACK 236 AUDIO
    TITLE "236"
    PERFORMER "Benjamin ""Benjamoose"" Rudman"
    INDEX 01 10:20:19
  TRACK 237 AUDIO
    TITLE "237"
    PERFORMER "Benjamin ""Benjamoose"" Rudman"
    INDEX 01 10:22:28
  TRACK 238 AUDIO
    TITLE "238"
    PERFORMER "Benjamin ""Benjamoose"" Rudman"
    INDEX 01 10:24:62
  TRACK 239 AUDIO
    TITLE "239"
    PERFORMER "Benjamin ""Benjamoose"" Rudman"
    INDEX 01 10:27:14
  TRACK 240 AUDIO
    TITLE "240"
    PERFORMER "Benjamin ""Benjamoose"" Rudman"
    INDEX 01 10:30:32
  TRACK 241 AUDIO
    TITLE "241"
    PERFORMER "Benjamin ""Benjamoose"" Rudman"
    INDEX 01 10:33:36
  TRACK 242 AUDIO
    TITLE "242"
    PERFORMER "Benjamin ""Benjamoose"" Rudman"
    INDEX 01 10:35:17
  TRACK 243 AUDIO
    TITLE "243"
    PERFORMER "Benjamin ""Benjamoose"" Rudman"
    INDEX 01 10:37:16
  TRACK 244 AUDIO
    TITLE "244"
    PERFORMER "Benjamin ""Benjamoose"" Rudman"
    INDEX 01 10:39:33
  TRACK 245 AUDIO
    TITLE "245"
    PERFORMER "Benjamin ""Benjamoose"" Rudman"
    INDEX 01 10:41:35
  TRACK 246 AUDIO
    TITLE "246"
    PERFORMER "Benjamin ""Benjamoose"" Rudman"
    INDEX 01 10:43:44
  TRACK 247 AUDIO
    TITLE "247"
    PERFORMER "Benjamin ""Benjamoose"" Rudman"
    INDEX 01 10:45:43
  TRACK 248 AUDIO
    TITLE "248"
    PERFORMER "Benjamin ""Benjamoose"" Rudman"
    INDEX 01 10:47:49
  TRACK 249 AUDIO
    TITLE "249"
    PERFORMER "Benjamin ""Benjamoose"" Rudman"
    INDEX 01 10:49:45
  TRACK 250 AUDIO
    TITLE "250"
    PERFORMER "Benjamin ""Benjamoose"" Rudman"
    INDEX 01 10:51:40
  TRACK 251 AUDIO
    TITLE "251"
    PERFORMER "Benjamin ""Benjamoose"" Rudman"
    INDEX 01 10:53:67
  TRACK 252 AUDIO
    TITLE "252"
    PERFORMER "Benjamin ""Benjamoose"" Rudman"
    INDEX 01 10:56:19
  TRACK 253 AUDIO
    TITLE "253"
    PERFORMER "Benjamin ""Benjamoose"" Rudman"
    INDEX 01 10:58:49
  TRACK 254 AUDIO
    TITLE "254"
    PERFORMER "Benjamin ""Benjamoose"" Rudman"
    INDEX 01 11:00:17
  TRACK 255 AUDIO
    TITLE "255"
    PERFORMER "Benjamin ""Benjamoose"" Rudman"
    INDEX 01 11:01:59
  TRACK 256 AUDIO
    TITLE "256"
    PERFORMER "Benjamin ""Benjamoose"" Rudman"
    INDEX 01 11:03:30
  TRACK 257 AUDIO
    TITLE "257"
    PERFORMER "Benjamin ""Benjamoose"" Rudman"
    INDEX 01 11:05:57
  TRACK 258 AUDIO
    TITLE "258"
    PERFORMER "Benjamin ""Benjamoose"" Rudman"
    INDEX 01 11:07:70
  TRACK 259 AUDIO
    TITLE "259"
    PERFORMER "Benjamin ""Benjamoose"" Rudman"
    INDEX 01 11:10:18
  TRACK 260 AUDIO
    TITLE "260"
    PERFORMER "Benjamin ""Benjamoose"" Rudman"
    INDEX 01 11:12:56
  TRACK 261 AUDIO
    TITLE "261"
    PERFORMER "Benjamin ""Benjamoose"" Rudman"
    INDEX 01 11:14:09
  TRACK 262 AUDIO
    TITLE "262"
    PERFORMER "Benjamin ""Benjamoose"" Rudman"
    INDEX 01 11:22:74
  TRACK 263 AUDIO
    TITLE "263"
    PERFORMER "Benjamin ""Benjamoose"" Rudman"
    INDEX 01 11:24:41
  TRACK 264 AUDIO
    TITLE "264"
    PERFORMER "Benjamin ""Benjamoose"" Rudman"
    INDEX 01 11:26:13
  TRACK 265 AUDIO
    TITLE "265"
    PERFORMER "Benjamin ""Benjamoose"" Rudman"
    INDEX 01 11:28:50
  TRACK 266 AUDIO
    TITLE "266"
    PERFORMER "Benjamin ""Benjamoose"" Rudman"
    INDEX 01 11:30:66
  TRACK 267 AUDIO
    TITLE "267"
    PERFORMER "Benjamin ""Benjamoose"" Rudman"
    INDEX 01 11:32:09
  TRACK 268 AUDIO
    TITLE "268"
    PERFORMER "Benjamin ""Benjamoose"" Rudman"
    INDEX 01 11:34:29
  TRACK 269 AUDIO
    TITLE "269"
    PERFORMER "Benjamin ""Benjamoose"" Rudman"
    INDEX 01 11:36:28
  TRACK 270 AUDIO
    TITLE "270"
    PERFORMER "Benjamin ""Benjamoose"" Rudman"
    INDEX 01 11:39:74
  TRACK 271 AUDIO
    TITLE "271"
    PERFORMER "Benjamin ""Benjamoose"" Rudman"
    INDEX 01 11:42:15
  TRACK 272 AUDIO
    TITLE "272"
    PERFORMER "Benjamin ""Benjamoose"" Rudman"
    INDEX 01 11:43:65
  TRACK 273 AUDIO
    TITLE "273"
    PERFORMER "Benjamin ""Benjamoose"" Rudman"
    INDEX 01 11:45:71
  TRACK 274 AUDIO
    TITLE "274"
    PERFORMER "Benjamin ""Benjamoose"" Rudman"
    INDEX 01 11:48:23
  TRACK 275 AUDIO
    TITLE "275"
    PERFORMER "Benjamin ""Benjamoose"" Rudman"
    INDEX 01 11:49:65
  TRACK 276 AUDIO
    TITLE "276"
    PERFORMER "Benjamin ""Benjamoose"" Rudman"
    INDEX 01 11:51:36
  TRACK 277 AUDIO
    TITLE "277"
    PERFORMER "Benjamin ""Benjamoose"" Rudman"
    INDEX 01 11:53:11
  TRACK 278 AUDIO
    TITLE "278"
    PERFORMER "Benjamin ""Benjamoose"" Rudman"
    INDEX 01 11:54:54
  TRACK 279 AUDIO
    TITLE "279"
    PERFORMER "Benjamin ""Benjamoose"" Rudman"
    INDEX 01 11:56:21
  TRACK 280 AUDIO
    TITLE "280"
    PERFORMER "Benjamin ""Benjamoose"" Rudman"
    INDEX 01 11:58:06
  TRACK 281 AUDIO
    TITLE "281"
    PERFORMER "Benjamin ""Benjamoose"" Rudman"
    INDEX 01 12:00:16
  TRACK 282 AUDIO
    TITLE "282"
    PERFORMER "Benjamin ""Benjamoose"" Rudman"
    INDEX 01 12:02:25
  TRACK 283 AUDIO
    TITLE "283"
    PERFORMER "Benjamin ""Benjamoose"" Rudman"
    INDEX 01 12:03:54
  TRACK 284 AUDIO
    TITLE "284"
    PERFORMER "Benjamin ""Benjamoose"" Rudman"
    INDEX 01 12:05:63
  TRACK 285 AUDIO
    TITLE "285"
    PERFORMER "Benjamin ""Benjamoose"" Rudman"
    INDEX 01 12:07:66
  TRACK 286 AUDIO
    TITLE "286"
    PERFORMER "Benjamin ""Benjamoose"" Rudman"
    INDEX 01 12:09:33
  TRACK 287 AUDIO
    TITLE "287"
    PERFORMER "Benjamin ""Benjamoose"" Rudman"
    INDEX 01 12:11:60
  TRACK 288 AUDIO
    TITLE "288"
    PERFORMER "Benjamin ""Benjamoose"" Rudman"
    INDEX 01 12:14:15
  TRACK 289 AUDIO
    TITLE "289"
    PERFORMER "Benjamin ""Benjamoose"" Rudman"
    INDEX 01 12:16:46
  TRACK 290 AUDIO
    TITLE "290"
    PERFORMER "Benjamin ""Benjamoose"" Rudman"
    INDEX 01 12:19:01
  TRACK 291 AUDIO
    TITLE "291"
    PERFORMER "Benjamin ""Benjamoose"" Rudman"
    INDEX 01 12:21:24
  TRACK 292 AUDIO
    TITLE "292"
    PERFORMER "Benjamin ""Benjamoose"" Rudman"
    INDEX 01 12:24:01
  TRACK 293 AUDIO
    TITLE "293"
    PERFORMER "Benjamin ""Benjamoose"" Rudman"
    INDEX 01 12:25:54
  TRACK 294 AUDIO
    TITLE "294"
    PERFORMER "Benjamin ""Benjamoose"" Rudman"
    INDEX 01 12:27:25
  TRACK 295 AUDIO
    TITLE "295"
    PERFORMER "Benjamin ""Benjamoose"" Rudman"
    INDEX 01 12:29:41
  TRACK 296 AUDIO
    TITLE "296"
    PERFORMER "Benjamin ""Benjamoose"" Rudman"
    INDEX 01 12:32:66
  TRACK 297 AUDIO
    TITLE "297"
    PERFORMER "Benjamin ""Benjamoose"" Rudman"
    INDEX 01 12:37:59
  TRACK 298 AUDIO
    TITLE "298"
    PERFORMER "Benjamin ""Benjamoose"" Rudman"
    INDEX 01 12:39:34
  TRACK 299 AUDIO
    TITLE "299"
    PERFORMER "Benjamin ""Benjamoose"" Rudman"
    INDEX 01 12:41:50
  TRACK 300 AUDIO
    TITLE "300"
    PERFORMER "Benjamin ""Benjamoose"" Rudman"
    INDEX 01 12:44:09
  TRACK 301 AUDIO
    TITLE "301"
    PERFORMER "Benjamin ""Benjamoose"" Rudman"
    INDEX 01 12:46:22
  TRACK 302 AUDIO
    TITLE "302"
    PERFORMER "Benjamin ""Benjamoose"" Rudman"
    INDEX 01 12:48:52
  TRACK 303 AUDIO
    TITLE "303"
    PERFORMER "Benjamin ""Benjamoose"" Rudman"
    INDEX 01 12:50:69
  TRACK 304 AUDIO
    TITLE "304"
    PERFORMER "Benjamin ""Benjamoose"" Rudman"
    INDEX 01 12:53:31
  TRACK 305 AUDIO
    TITLE "305"
    PERFORMER "Benjamin ""Benjamoose"" Rudman"
    INDEX 01 12:56:04
  TRACK 306 AUDIO
    TITLE "306"
    PERFORMER "Benjamin ""Benjamoose"" Rudman"
    INDEX 01 12:58:48
  TRACK 307 AUDIO
    TITLE "307"
    PERFORMER "Benjamin ""Benjamoose"" Rudman"
    INDEX 01 13:01:69
  TRACK 308 AUDIO
    TITLE "308"
    PERFORMER "Benjamin ""Benjamoose"" Rudman"
    INDEX 01 13:04:42
  TRACK 309 AUDIO
    TITLE "309"
    PERFORMER "Benjamin ""Benjamoose"" Rudman"
    INDEX 01 13:06:62
  TRACK 310 AUDIO
    TITLE "310"
    PERFORMER "Benjamin ""Benjamoose"" Rudman"
    INDEX 01 13:09:31
  TRACK 311 AUDIO
    TITLE "311"
    PERFORMER "Benjamin ""Benjamoose"" Rudman"
    INDEX 01 13:12:11
  TRACK 312 AUDIO
    TITLE "312"
    PERFORMER "Benjamin ""Benjamoose"" Rudman"
    INDEX 01 13:14:59
  TRACK 313 AUDIO
    TITLE "313"
    PERFORMER "Benjamin ""Benjamoose"" Rudman"
    INDEX 01 13:17:70
  TRACK 314 AUDIO
    TITLE "314"
    PERFORMER "Benjamin ""Benjamoose"" Rudman"
    INDEX 01 13:20:35
  TRACK 315 AUDIO
    TITLE "315"
    PERFORMER "Benjamin ""Benjamoose"" Rudman"
    INDEX 01 13:23:43
  TRACK 316 AUDIO
    TITLE "316"
    PERFORMER "Benjamin ""Benjamoose"" Rudman"
    INDEX 01 13:24:72
  TRACK 317 AUDIO
    TITLE "317"
    PERFORMER "Benjamin ""Benjamoose"" Rudman"
    INDEX 01 13:26:36
  TRACK 318 AUDIO
    TITLE "318"
    PERFORMER "Benjamin ""Benjamoose"" Rudman"
    INDEX 01 13:28:07
  TRACK 319 AUDIO
    TITLE "319"
    PERFORMER "Benjamin ""Benjamoose"" Rudman"
    INDEX 01 13:31:18
  TRACK 320 AUDIO
    TITLE "320"
    PERFORMER "Benjamin ""Benjamoose"" Rudman"
    INDEX 01 13:33:03
  TRACK 321 AUDIO
    TITLE "321"
    PERFORMER "Benjamin ""Benjamoose"" Rudman"
    INDEX 01 13:35:19
  TRACK 322 AUDIO
    TITLE "322"
    PERFORMER "Benjamin ""Benjamoose"" Rudman"
    INDEX 01 13:37:18
  TRACK 323 AUDIO
    TITLE "323"
    PERFORMER "Benjamin ""Benjamoose"" Rudman"
    INDEX 01 13:39:35
  TRACK 324 AUDIO
    TITLE "324"
    PERFORMER "Benjamin ""Benjamoose"" Rudman"
    INDEX 01 13:41:51
  TRACK 325 AUDIO
    TITLE "325"
    PERFORMER "Benjamin ""Benjamoose"" Rudman"
    INDEX 01 13:44:10
  TRACK 326 AUDIO
    TITLE "326"
    PERFORMER "Benjamin ""Benjamoose"" Rudman"
    INDEX 01 13:47:10
  TRACK 327 AUDIO
    TITLE "327"
    PERFORMER "Benjamin ""Benjamoose"" Rudman"
    INDEX 01 13:49:55
  TRACK 328 AUDIO
    TITLE "328"
    PERFORMER "Benjamin ""Benjamoose"" Rudman"
    INDEX 01 13:52:62
  TRACK 329 AUDIO
    TITLE "329"
    PERFORMER "Benjamin ""Benjamoose"" Rudman"
    INDEX 01 13:55:28
  TRACK 330 AUDIO
    TITLE "330"
    PERFORMER "Benjamin ""Benjamoose"" Rudman"
    INDEX 01 13:57:37
  TRACK 331 AUDIO
    TITLE "331"
    PERFORMER "Benjamin ""Benjamoose"" Rudman"
    INDEX 01 14:01:05
  TRACK 332 AUDIO
    TITLE "332"
    PERFORMER "Benjamin ""Benjamoose"" Rudman"
    INDEX 01 14:03:66
  TRACK 333 AUDIO
    TITLE "333"
    PERFORMER "Benjamin ""Benjamoose"" Rudman"
    INDEX 01 14:06:67
  TRACK 334 AUDIO
    TITLE "334"
    PERFORMER "Benjamin ""Benjamoose"" Rudman"
    INDEX 01 14:09:71
  TRACK 335 AUDIO
    TITLE "335"
    PERFORMER "Benjamin ""Benjamoose"" Rudman"
    INDEX 01 14:12:51
  TRACK 336 AUDIO
    TITLE "336"
    PERFORMER "Benjamin ""Benjamoose"" Rudman"
    INDEX 01 14:15:09
  TRACK 337 AUDIO
    TITLE "337"
    PERFORMER "Benjamin ""Benjamoose"" Rudman"
    INDEX 01 14:17:22
  TRACK 338 AUDIO
    TITLE "338"
    PERFORMER "Benjamin ""Benjamoose"" Rudman"
    INDEX 01 14:21:45
  TRACK 339 AUDIO
    TITLE "339"
    PERFORMER "Benjamin ""Benjamoose"" Rudman"
    INDEX 01 14:23:55
  TRACK 340 AUDIO
    TITLE "340"
    PERFORMER "Benjamin ""Benjamoose"" Rudman"
    INDEX 01 14:25:29
  TRACK 341 AUDIO
    TITLE "341"
    PERFORMER "Benjamin ""Benjamoose"" Rudman"
    INDEX 01 14:27:60
  TRACK 342 AUDIO
    TITLE "342"
    PERFORMER "Benjamin ""Benjamoose"" Rudman"
    INDEX 01 14:30:29
  TRACK 343 AUDIO
    TITLE "343"
    PERFORMER "Benjamin ""Benjamoose"" Rudman"
    INDEX 01 14:31:40
  TRACK 344 AUDIO
    TITLE "344"
    PERFORMER "Benjamin ""Benjamoose"" Rudman"
    INDEX 01 14:33:67
  TRACK 345 AUDIO
    TITLE "345"
    PERFORMER "Benjamin ""Benjamoose"" Rudman"
    INDEX 01 14:36:68
  TRACK 346 AUDIO
    TITLE "346"
    PERFORMER "Benjamin ""Benjamoose"" Rudman"
    INDEX 01 14:39:47
  TRACK 347 AUDIO
    TITLE "347"
    PERFORMER "Benjamin ""Benjamoose"" Rudman"
    INDEX 01 14:40:55
  TRACK 348 AUDIO
    TITLE "348"
    PERFORMER "Benjamin ""Benjamoose"" Rudman"
    INDEX 01 14:45:41
  TRACK 349 AUDIO
    TITLE "349"
    PERFORMER "Benjamin ""Benjamoose"" Rudman"
    INDEX 01 14:48:70
